  <svg version="1.1" class="trash" xmlns="http://www.w3.org/2000/svg" xmlns:xlink="http://www.w3.org/1999/xlink" x="0px" y="0px" viewBox="0 0 26.5 29" xml:space="preserve">
    <g>
      <g class="corpo">
        <path class="st0" d="M8.2,25.5c-1.6,0-3-1.3-3-3v-13h2v13c0,0.5,0.4,1,1,1h10l0,0c0.6,0,1-0.4,1-1v-13h2v13c0,1.7-1.4,3-3,3l0,0
          H8.2L8.2,25.5z"/>
        <g>
          <path class="st0" d="M10.2,13.5c0-0.6,0.4-1,1-1l0,0c0.6,0,1,0.4,1,1v6c0,0.6-0.4,1-1,1l0,0c-0.6,0-1-0.4-1-1V13.5z"/>
        </g>
        <g>
          <path class="st0" d="M14.2,13.5c0-0.6,0.4-1,1-1l0,0c0.6,0,1,0.4,1,1v6c0,0.6-0.4,1-1,1l0,0c-0.6,0-1-0.4-1-1V13.5z"/>
        </g>
      </g>
      <path class="tampa" d="M22.2,6.5h-5v-1c0-0.5-0.2-1-0.6-1.4c-0.4-0.4-0.9-0.6-1.4-0.6h-4c-1.1,0-2,0.9-2,2v1h-5c-0.6,0-1,0.5-1,1l0,0c0,0.5,0.4,1,1,1h18c0.5,0,1-0.5,1-1l0,0C23.2,6.9,22.8,6.5,22.2,6.5z M11.2,5.5h4v1h-4V5.5z"/>
    </g>
  </svg>